<svg width="640" height="640" viewBox="0 0 640 640" fill="none" xmlns="http://www.w3.org/2000/svg">
<title>KasamByahe Icon</title>
<path d="M594.7 506.15C587.765 510.048 579.565 511.032 571.904 508.885C564.243 506.737 557.749 501.635 553.85 494.7L382.5 190H350V200C350 207.956 346.839 215.587 341.213 221.213C335.587 226.839 327.957 230 320 230C312.044 230 304.413 226.839 298.787 221.213C293.161 215.587 290 207.956 290 200V190H257.5L86.1501 494.7C84.2415 498.175 81.6631 501.237 78.564 503.709C75.4648 506.182 71.9063 508.016 68.0942 509.104C64.2821 510.193 60.292 510.516 56.3545 510.053C52.417 509.59 48.6103 508.352 45.1544 506.409C41.6985 504.466 38.6619 501.858 36.2201 498.735C33.7784 495.611 31.98 492.035 30.9288 488.212C29.8777 484.389 29.5946 480.396 30.096 476.464C30.5974 472.531 31.8734 468.737 33.8501 465.3L188.7 190H60.0001C52.0436 190 44.4129 186.839 38.7869 181.213C33.1608 175.587 30.0001 167.956 30.0001 160C30.0001 152.044 33.1608 144.413 38.7869 138.787C44.4129 133.161 52.0436 130 60.0001 130H580C587.957 130 595.587 133.161 601.213 138.787C606.839 144.413 610 152.044 610 160C610 167.956 606.839 175.587 601.213 181.213C595.587 186.839 587.957 190 580 190H451.3L606.15 465.3C610.048 472.235 611.032 480.435 608.885 488.096C606.738 495.757 601.635 502.251 594.7 506.15ZM320 270C312.044 270 304.413 273.161 298.787 278.787C293.161 284.413 290 292.044 290 300V340C290 347.956 293.161 355.587 298.787 361.213C304.413 366.839 312.044 370 320 370C327.957 370 335.587 366.839 341.213 361.213C346.839 355.587 350 347.956 350 340V300C350 292.044 346.839 284.413 341.213 278.787C335.587 273.161 327.957 270 320 270ZM320 410C312.044 410 304.413 413.161 298.787 418.787C293.161 424.413 290 432.044 290 440V480C290 487.956 293.161 495.587 298.787 501.213C304.413 506.839 312.044 510 320 510C327.957 510 335.587 506.839 341.213 501.213C346.839 495.587 350 487.956 350 480V440C350 432.044 346.839 424.413 341.213 418.787C335.587 413.161 327.957 410 320 410Z" fill="#2563EB"/>
</svg>
